<svg xmlns="http://www.w3.org/2000/svg" xml:space="preserve" viewBox="0 0 400 120"><g><path d="M120 120H0V0h120z"/><path d="M40 22v16c0 1.1-.9 2-2 2H22c-1.1 0-2-.9-2-2V22c0-1.1.9-2 2-2h16c1.1 0 2 .9 2 2m18 18H42c-1.1 0-2 .9-2 2v16c0 1.1.9 2 2 2h16c1.1 0 2-.9 2-2V42c0-1.1-.9-2-2-2m0 40H42c-1.1 0-2-.9-2-2V62c0-1.1-.9-2-2-2H22c-1.1 0-2 .9-2 2v18c0 11 8.9 20 20 20h18c1.1 0 2-.9 2-2V82c0-1.1-.9-2-2-2m20-60H62c-1.1 0-2 .9-2 2v16c0 1.1.9 2 2 2h16c1.1 0 2-.9 2-2V22c0-1.1-.9-2-2-2m18.8 20H81.2c-.8 0-1.5.4-1.8 1.1l-18 36c-.7 1.3.3 2.9 1.8 2.9h15.5c.8 0 1.5-.4 1.8-1.1l18-36c.7-1.4-.2-2.9-1.7-2.9M98 80H82c-1.1 0-2 .9-2 2v16c0 1.1.9 2 2 2h16c1.1 0 2-.9 2-2V82c0-1.1-.9-2-2-2" style="fill:#fff"/><path d="M155.9 55.1v11.6q0 5.4 5.4 5.4h2.9V80h-4.4c-8 0-12.7-4.6-12.7-12.6V55.1H141v-7.9h6.1v-6l8.8-3.6v9.6h8.3v7.9zM200.8 63.7c0 9.7-7.4 17-17.1 17s-17-7.3-17-17c0-9.8 7.4-17.2 17-17.2s17.1 7.4 17.1 17.2m-25.5 0c0 4.9 3.6 8.6 8.4 8.6s8.4-3.7 8.4-8.6c0-5-3.7-8.7-8.4-8.7-4.8 0-8.4 3.7-8.4 8.7M238.8 63.7c0 9.7-7.4 17-17.1 17s-17-7.3-17-17c0-9.8 7.4-17.2 17-17.2 9.7 0 17.1 7.4 17.1 17.2m-25.5 0c0 4.9 3.6 8.6 8.4 8.6s8.4-3.7 8.4-8.6c0-5-3.7-8.7-8.4-8.7s-8.4 3.7-8.4 8.7M252.5 80.1h-8.8V36l8.8-3.6zM287 53.5l-17 18.4 17.2-.2v8.4h-29.7v-6.3l17.1-18.5-15.9.2v-8.4H287zM325.1 63.7c0 9.7-7.4 17-17.1 17s-17-7.3-17-17c0-9.8 7.4-17.2 17-17.2 9.7 0 17.1 7.4 17.1 17.2m-25.5 0c0 4.9 3.6 8.6 8.4 8.6s8.4-3.7 8.4-8.6c0-5-3.7-8.7-8.4-8.7-4.8 0-8.4 3.7-8.4 8.7M347.9 46.5c8.4 0 13.5 5.7 13.5 14.9V80h-8.8V62.6c0-4.6-2.8-7.6-7-7.6s-7 3-7 7.6v17.5h-8.8V47.2h8.8v3.6c2.4-2.8 5.6-4.3 9.3-4.3M400 62.5c0 .7-.1 2.1-.2 3.1h-24.9c.6 4.7 4.1 7.8 8.9 7.8 3.9 0 6.5-1.8 7.2-4.3h8.6c-1.1 7.1-7.3 11.6-15.5 11.6-9.7 0-17.2-7.5-17.2-17.2 0-9.5 7.4-17 17-17 8.9 0 16.1 7 16.1 16m-9.2-2.6c-.3-3.7-3.5-6.3-7.4-6.3s-7 2.1-8.1 6.3z"/></g></svg>