<svg xmlns="http://www.w3.org/2000/svg" id="Layer_1" data-name="Layer 1" viewBox="0 0 1000 1000" width="1000" height="1000"><metadata><rdf:RDF xmlns:rdf="http://www.w3.org/1999/02/22-rdf-syntax-ns#" xmlns:dc="http://purl.org/dc/elements/1.1/"><rdf:Description><dc:creator>RealFaviconGenerator</dc:creator><dc:source>https://realfavicongenerator.net</dc:source></rdf:Description></rdf:RDF></metadata><path d="m1000,1000H0V0h1000v1000Z" stroke-width="0"></path><g>
    <rect x="166.67" y="166.67" width="166.67" height="166.67" rx="16.67" ry="16.67" fill="#fff" stroke-width="0"></rect>
    <rect x="333.33" y="333.33" width="166.67" height="166.67" rx="16.67" ry="16.67" fill="#fff" stroke-width="0"></rect>
    <path d="m500,683.33v133.33c0,9.2-7.46,16.67-16.67,16.67h-150v-.08c-92.08,0-166.67-74.58-166.67-166.58v-150c0-9.2,7.46-16.67,16.67-16.67h133.33c9.2,0,16.67,7.46,16.67,16.67v133.33c0,9.2,7.46,16.67,16.67,16.67h133.33c9.2,0,16.67,7.46,16.67,16.67Z" fill="#fff" stroke-width="0"></path>
    <rect x="500" y="166.67" width="166.67" height="166.67" rx="16.67" ry="16.67" fill="#fff" stroke-width="0"></rect>
    <path d="m821.27,357.45l-150,300c-2.82,5.65-8.59,9.21-14.91,9.21h-129.4c-12.39,0-20.45-13.04-14.91-24.12l150-300c2.82-5.65,8.59-9.21,14.91-9.21h129.4c12.39,0,20.45,13.04,14.91,24.12Z" fill="#fff" stroke-width="0"></path>
    <rect x="666.67" y="666.67" width="166.67" height="166.67" rx="16.67" ry="16.67" fill="#fff" stroke-width="0"></rect>
  </g></svg>